<svg width="44" height="64" viewBox="0 0 44 64" fill="none" xmlns="http://www.w3.org/2000/svg">
<path fill-rule="evenodd" clip-rule="evenodd" d="M11.1983 0.0737857C11.3159 0.0250724 11.4419 0 11.5692 0H32.2563C32.3836 0 32.5097 0.0250724 32.6273 0.0737857L39.9413 3.10334C40.1788 3.20172 40.3675 3.39043 40.4659 3.62794L43.4954 10.9419C43.5938 11.1795 43.5938 11.4463 43.4954 11.6838L40.4659 18.9978C40.3675 19.2353 40.1788 19.424 39.9413 19.5224L34.7893 21.6564L39.9413 23.7905C40.1788 23.8888 40.3675 24.0775 40.4659 24.3151L43.4954 31.6291C43.5938 31.8666 43.5938 32.1334 43.4954 32.3709L40.4659 39.6849C40.3675 39.9225 40.1788 40.1112 39.9413 40.2095L32.6273 43.2391C32.3898 43.3375 32.1229 43.3375 31.8854 43.2391L24.5714 40.2095C24.3339 40.1112 24.1452 39.9225 24.0468 39.6849L22.8821 36.8731V42.2062C22.8821 42.2293 22.8813 42.2522 22.8797 42.2749C22.8813 42.2976 22.8821 42.3205 22.8821 42.3436V52.6871C22.8821 52.8144 22.857 52.9405 22.8083 53.0581L19.7788 60.3721C19.6804 60.6096 19.4917 60.7983 19.2542 60.8967L11.9402 63.9262C11.7027 64.0246 11.4358 64.0246 11.1983 63.9262L3.88429 60.8967C3.64677 60.7983 3.45807 60.6096 3.35969 60.3721L0.330133 53.0581C0.231752 52.8205 0.231752 52.5537 0.330133 52.3162L3.35969 45.0022C3.45807 44.7647 3.64677 44.576 3.88429 44.4776L9.20205 42.2749L3.88429 40.0722C3.64677 39.9738 3.45807 39.7851 3.35969 39.5476L0.330133 32.2336C0.231752 31.9961 0.231752 31.7292 0.330133 31.4917L3.35969 24.1777C3.45807 23.9402 3.64677 23.7515 3.88429 23.6531L8.87045 21.5878L3.88429 19.5224C3.64677 19.424 3.45807 19.2353 3.35969 18.9978L0.330133 11.6838C0.231752 11.4463 0.231752 11.1795 0.330133 10.9419L3.35969 3.62794C3.45807 3.39043 3.64677 3.20172 3.88429 3.10334L11.1983 0.0737857ZM11.4486 22.6182L5.96645 24.889L20.9435 39.866V22.6258H11.5692C11.5288 22.6258 11.4885 22.6232 11.4486 22.6182ZM22.8821 22.6258V27.1269L24.0468 24.3151C24.1452 24.0775 24.3339 23.8888 24.5714 23.7905L27.3832 22.6258H22.8821ZM32.0635 20.6871H22.8821V3.30949L37.8591 18.2865L32.0635 20.6871ZM39.23 16.9157L41.5507 11.3129L38.8284 4.74078L32.0635 1.93866H24.2529L39.23 16.9157ZM20.9435 1.93866H11.762L5.96645 4.33927L20.9435 19.3163V1.93866ZM19.4353 20.5498H11.5692C11.5288 20.5498 11.4885 20.5523 11.4486 20.5573L4.99712 17.885L2.27487 11.3129L4.59562 5.71011L19.4353 20.5498ZM32.2563 22.7056L26.6536 25.0264L39.23 37.6028L41.5507 32L38.8284 25.4279L32.2563 22.7056ZM37.8591 38.9736L25.2827 26.3972L22.962 32L25.6842 38.5721L32.2563 41.2944L37.8591 38.9736ZM19.5726 41.2369L4.59562 26.2599L2.27487 31.8626L4.99712 38.4347L11.762 41.2369H19.5726ZM11.762 43.3129H20.9435V52.4943L18.5428 58.2899L5.96645 45.7135L11.762 43.3129ZM4.59562 47.0843L2.27487 52.6871L4.99713 59.2592L11.5692 61.9815L17.172 59.6607L4.59562 47.0843Z" fill="#3928A6"/>
</svg>
